# xmcd CD database file
# Copyright (C) 1993-1998 Ti Kan
# 
# Track frame offsets:
#     180
#     29441
#     46954
#     65971
#     84814
#     103170
#     121456
#     137488
#     159422
#     174629
#     192811
#     211552
#     231137
#     250974
#     267787
#     282789
#     299315
# 
# Disc length: 4262 seconds
# 
# Revision: 1
# Processed by: cddbd v1.4b41PL1 Copyright (c) Steve Scherf et al.
# Submitted via: DiscPlay 4.0.4
# 
DISCID=ef10a411
DTITLE=Tina Turner - The Music Of Tina Turner, 17 instrumental hits
DYEAR=1900
DGENRE=
TTITLE0=Private Dancer
TTITLE1=Steamy Windows
TTITLE2=We Don't Need Another Hero
TTITLE3=It Takes Two
TTITLE4=The Best
TTITLE5=Typical Male
TTITLE6=Nutbush City Limits
TTITLE7=Addicted To Love
TTITLE8=What's Love Got To Do With It
TTITLE9=I Don't Wanna Lose You
TTITLE10=Let's Stay Together
TTITLE11=Be Tender With Me Baby
TTITLE12=Help
TTITLE13=What You Get Is What You See
TTITLE14=River Deep Mountain High
TTITLE15=I Might Have Been Queen
TTITLE16=Way Of The World
EXTD=
EXTT0=
EXTT1=
EXTT2=
EXTT3=
EXTT4=
EXTT5=
EXTT6=
EXTT7=
EXTT8=
EXTT9=
EXTT10=
EXTT11=
EXTT12=
EXTT13=
EXTT14=
EXTT15=
EXTT16=
PLAYORDER=
